<svg width="21" height="21" viewBox="0 0 21 21" fill="none" xmlns="http://www.w3.org/2000/svg">
<g clip-path="url(#clip0_1_2)">
<path d="M10.79 15.617L20.438 5.97099C20.571 5.83999 20.633 5.66999 20.633 5.49799C20.633 5.32599 20.571 5.15399 20.438 5.02499L20.426 5.01299C20.301 4.88599 20.131 4.81799 19.954 4.81799H15.272C15.092 4.81799 14.924 4.88599 14.799 5.01299L10.319 9.49199L5.839 5.01299C5.711 4.88599 5.54 4.81799 5.366 4.81799H0.684C0.502 4.81799 0.335 4.88599 0.209 5.01299L0.196 5.02499C0.068 5.14799 0 5.32199 0 5.49799C0 5.67399 0.068 5.84599 0.196 5.97099L9.844 15.617C10.108 15.88 10.53 15.88 10.79 15.617Z" fill="black"/>
</g>
<defs>
<clipPath id="clip0_1_2">
<rect width="20.633" height="20.633" fill="white"/>
</clipPath>
</defs>
</svg>
