<svg width="21" height="21" viewBox="0 0 21 21" fill="none" xmlns="http://www.w3.org/2000/svg">
<g clip-path="url(#clip0_1_35)">
<path d="M9.843 5.01524L0.194996 14.6612C0.0619959 14.7922 -3.8147e-06 14.9622 -3.8147e-06 15.1342C-3.8147e-06 15.3062 0.0619959 15.4782 0.194996 15.6072L0.206995 15.6192C0.331995 15.7462 0.501995 15.8142 0.678995 15.8142H5.361C5.541 15.8142 5.709 15.7462 5.834 15.6192L10.314 11.1402L14.794 15.6192C14.922 15.7462 15.093 15.8142 15.267 15.8142H19.949C20.131 15.8142 20.298 15.7462 20.424 15.6192L20.437 15.6072C20.565 15.4842 20.633 15.3102 20.633 15.1342C20.633 14.9582 20.565 14.7862 20.437 14.6612L10.789 5.01524C10.525 4.75224 10.103 4.75224 9.843 5.01524Z" fill="black"/>
</g>
<defs>
<clipPath id="clip0_1_35">
<rect width="20.633" height="20.633" fill="white"/>
</clipPath>
</defs>
</svg>
